<svg width="70" height="63" viewBox="0 0 70 63" fill="none" xmlns="http://www.w3.org/2000/svg">
<path d="M1.36303 57.9947L1.36306 57.9947L8.22667 51.8088L8.59928 51.473L8.26226 51.1014C3.31719 45.65 0.584768 38.8528 0.50194 31.8289C0.419113 24.805 2.99056 17.9576 7.80539 12.4133C12.6212 6.86789 19.3956 2.95642 27.0196 1.33306C34.6437 -0.290333 42.6533 0.473565 49.7284 3.49647C56.8031 6.51922 62.5142 11.6169 65.933 17.9404C69.3509 24.2623 70.2778 31.439 68.5664 38.2937C66.8548 45.1495 62.6024 51.2874 56.4948 55.6912C50.3863 60.0956 42.7898 62.4996 34.9542 62.5H3.49928C2.89608 62.5 2.31003 62.3386 1.81563 62.0409C1.32157 61.7433 0.944904 61.3256 0.724886 60.8469C0.505289 60.369 0.448939 59.8468 0.560018 59.3437C0.671237 58.8399 0.9474 58.3693 1.36303 57.9947Z" fill="url(#paint0_linear_299_1853)" stroke="black"/>
<defs>
<linearGradient id="paint0_linear_299_1853" x1="34.9521" y1="0" x2="34.9521" y2="63" gradientUnits="userSpaceOnUse">
<stop stop-color="#BD0000"/>
<stop offset="1" stop-color="#4F0C09"/>
</linearGradient>
</defs>
</svg>
