<svg width="1052" height="662" viewBox="0 0 1052 662" fill="none" xmlns="http://www.w3.org/2000/svg">
<g clip-path="url(#clip0_299_2371)">
<path d="M703.49 637.86C702.07 633.23 698.83 628.89 694.22 627.41C689.61 625.93 683.76 628.17 682.33 632.8C678.09 629.26 671.59 632.07 668.18 636.42C662.67 643.45 666.93 654.97 667.85 655.72C668.84 656.53 671.54 656.39 671.54 656.39L712.78 656.16C712.78 656.16 720.35 655.61 723.84 654.22C730.87 651.42 735.64 639.33 731.12 633.26C728.04 629.13 721.96 628.25 717.04 629.82C712.12 631.39 707.36 634.46 703.49 637.87" fill="#328432"/>
<path d="M670.95 657.76C669.9 657.76 668.04 657.62 666.99 656.77C665.37 655.46 661.26 643.04 667.11 635.58C669.57 632.44 673.26 630.26 676.74 629.89C678.56 629.68 680.25 630 681.73 630.77C682.62 629.18 684.02 627.84 685.8 626.92C688.51 625.51 691.82 625.2 694.64 626.12C698.74 627.44 702.18 630.9 704.11 635.56C708.13 632.3 712.51 629.83 716.62 628.52C721.55 626.95 728.52 627.51 732.2 632.45C734.32 635.3 734.81 639.5 733.54 643.99C732.03 649.35 728.41 653.86 724.33 655.49C720.68 656.94 713.18 657.5 712.86 657.53L671.53 657.76C671.39 657.76 671.19 657.78 670.93 657.78L670.95 657.76ZM677.8 632.56C677.55 632.56 677.29 632.57 677.03 632.6C674.3 632.89 671.25 634.72 669.26 637.26C664.42 643.43 668.04 653.73 668.83 654.77C669.01 654.9 670.38 655.09 671.47 655.02L712.78 654.79C712.78 654.79 720.09 654.24 723.34 652.94C726.62 651.64 729.67 647.74 730.94 643.24C731.98 639.58 731.65 636.23 730.04 634.07C727.16 630.2 721.5 629.82 717.47 631.11C713.18 632.48 708.54 635.24 704.41 638.88C704.06 639.19 703.59 639.29 703.14 639.17C702.69 639.04 702.34 638.7 702.21 638.26C700.76 633.5 697.62 629.93 693.82 628.71C691.68 628.02 689.15 628.26 687.07 629.34C685.36 630.23 684.14 631.6 683.65 633.21C683.51 633.64 683.17 633.98 682.74 634.11C682.31 634.24 681.83 634.14 681.48 633.85C680.45 632.99 679.22 632.56 677.82 632.56H677.8Z" fill="#50AA50"/>
<path d="M660.12 636.3C658.94 638.6 658.43 641.09 658.71 643.66C658.85 644.95 660.9 644.97 660.75 643.66C660.51 641.44 660.85 639.32 661.88 637.33C662.48 636.16 660.72 635.13 660.12 636.3Z" fill="#50AA50"/>
<path d="M654.16 637.94C653.52 640.25 653.47 642.56 653.98 644.9C654.26 646.18 656.23 645.64 655.95 644.36C655.51 642.38 655.58 640.44 656.13 638.49C656.48 637.22 654.51 636.68 654.16 637.95V637.94Z" fill="#50AA50"/>
<path d="M665.62 633.79C666.93 633.79 666.94 631.75 665.62 631.75C664.3 631.75 664.3 633.79 665.62 633.79Z" fill="#50AA50"/>
<path d="M671.41 643.66V645.48C671.41 646.79 673.45 646.8 673.45 645.48V643.66C673.45 642.35 671.41 642.34 671.41 643.66Z" fill="#50AA50"/>
<path d="M705.9 646.84V647.75C705.9 649.06 707.94 649.07 707.94 647.75V646.84C707.94 645.53 705.9 645.52 705.9 646.84Z" fill="#50AA50"/>
<path d="M702.12 644.39L702.57 644.84C703.5 645.77 704.95 644.33 704.01 643.4L703.56 642.95C702.63 642.02 701.18 643.46 702.12 644.39Z" fill="#50AA50"/>
<path d="M121.72 599.36H52.5801C51.0801 599.36 49.8601 598.14 49.8601 596.64C49.8601 595.14 51.0801 593.92 52.5801 593.92H121.72C123.22 593.92 124.44 595.14 124.44 596.64C124.44 598.14 123.22 599.36 121.72 599.36Z" fill="#05191D"/>
<path d="M730.54 359.57H728.56C728.56 357.94 727.23 356.61 725.6 356.61C723.97 356.61 722.64 357.94 722.64 359.57H720.66C720.66 356.85 722.87 354.63 725.6 354.63C728.33 354.63 730.54 356.84 730.54 359.57Z" fill="#900C0C"/>
<path d="M737.61 244.59H735.63C735.63 242.96 734.3 241.63 732.67 241.63C731.04 241.63 729.71 242.96 729.71 244.59H727.73C727.73 241.87 729.94 239.65 732.67 239.65C735.4 239.65 737.61 241.86 737.61 244.59Z" fill="#900C0C"/>
<path d="M491.79 644.15H397.82L399.41 640.37C405.57 625.75 406.21 613.24 405.27 598.94L405.08 596.05L484.31 595.81L484.33 598.52C484.4 607.76 486.9 628.75 490.66 640.61L491.79 644.16V644.15ZM405.93 638.7H484.45C481.43 627.27 479.37 610.75 478.96 601.26L410.88 601.47C411.52 614.15 410.75 625.68 405.93 638.7Z" fill="#05191D"/>
<path d="M370.81 601.21C299.47 601.21 241.67 600.82 239.14 599.91C233.03 597.73 225.05 589.27 224.94 583.27C224.71 570.27 224.15 552.57 223.5 532.07C221.55 470.26 218.87 385.61 222.34 338.77C222.97 330.24 230.02 323.64 238.45 323.64H238.72L650.03 324.25C658.73 324.4 665.71 331.42 665.91 340.23C666.22 353.91 666.67 367.9 667.12 382.07C669 441.41 670.95 502.78 664.38 560.81C664.12 563.1 664.01 565.62 663.89 568.24C663.33 580.41 662.65 595.57 646.95 598.66C639.28 600.17 487.06 601.21 370.8 601.21H370.81ZM238.49 328.01C232.32 328.01 227.18 332.84 226.71 339.08C223.26 385.69 225.93 470.21 227.88 531.92C228.53 552.44 229.09 570.16 229.32 583.18C229.39 586.97 235.72 594.03 240.61 595.78C249.37 597.57 636.06 596.25 646.11 594.36C658.43 591.93 658.98 579.78 659.52 568.03C659.64 565.31 659.77 562.69 660.03 560.3C666.57 502.59 664.62 441.39 662.75 382.2C662.3 368.02 661.86 354.02 661.54 340.33C661.39 333.88 656.32 328.74 649.98 328.62L238.69 328.01H238.49Z" fill="#05191D"/>
<path fill-rule="evenodd" clip-rule="evenodd" d="M638.53 338.41L251 337.9C244.03 337.8 238.18 342.57 237.66 348.82C233.32 400.69 239.24 508.91 240.11 552.47C240.2 556.71 247.12 563.08 252.12 564.66C257.99 566.52 626.27 565.11 635.27 563.54C651.43 560.72 648.68 544.16 650.04 533.57C657.71 473.66 653 408.55 651.47 349.95C651.31 343.6 645.6 338.52 638.54 338.41H638.53Z" fill="#963333"/>
<path d="M525.41 659.06H364.16C357.76 659.06 354.41 654.03 354.41 649.05C354.41 644.07 357.76 639.03 364.16 639.03H525.41C531.81 639.03 535.16 644.06 535.16 649.04C535.16 654.02 531.81 659.06 525.41 659.06ZM364.16 643.41C359.92 643.41 358.79 646.95 358.79 649.05C358.79 651.15 359.92 654.68 364.16 654.68H525.41C529.65 654.68 530.78 651.14 530.78 649.04C530.78 646.94 529.65 643.41 525.41 643.41H364.16Z" fill="#05191D"/>
<path d="M251.87 585.95C259.11 585.95 259.12 574.7 251.87 574.7C244.62 574.7 244.62 585.95 251.87 585.95Z" fill="#05191D"/>
<path d="M274.56 585.95C281.8 585.95 281.81 574.7 274.56 574.7C267.31 574.7 267.31 585.95 274.56 585.95Z" fill="#05191D"/>
<path d="M297.25 585.95C304.49 585.95 304.5 574.7 297.25 574.7C290 574.7 290 585.95 297.25 585.95Z" fill="#05191D"/>
<path d="M449.79 335.06C453.19 335.06 448.19 329.78 444.79 329.78C441.39 329.78 441.39 335.06 444.79 335.06H449.79Z" fill="#05191D"/>
<path d="M899.54 648.36H843.98L865.35 578.17H878.17L899.54 648.36Z" fill="#963333"/>
<path d="M904.13 648.36H839.39V656.38H904.13V648.36Z" fill="#963333"/>
<path d="M849.32 630.81L843.98 648.36H899.54L894.2 630.81H849.32Z" fill="#05191D"/>
<path d="M854.67 613.27H888.86L883.52 595.72H860.01L854.67 613.27Z" fill="#05191D"/>
<path d="M922.26 655.93H934.59V608.19H997.88V655.93H1010.21V608.19H1023.27V570.07H1012.86V566.55H994.9V570.07H938.83V566.55H920.87V570.07H909.44V608.19H922.28V655.93H922.26ZM1019.28 574.06V574.22L1011.68 604.21H998.12L1005.76 574.06H1019.28ZM983.91 604.21H970.35L977.99 574.06H991.55L983.91 604.21ZM956.14 604.21H942.58L950.22 574.06H963.78L956.14 604.21ZM922.45 574.06H936.01L928.37 604.21H914.81L922.45 574.06Z" fill="#963333"/>
<path d="M315.86 189.26L319.55 185.57C320.3 184.82 320.3 183.61 319.55 182.86L316.33 179.65C315.59 178.9 315.39 177.54 315.9 176.61L318.52 170.24C318.81 169.22 319.93 168.39 320.98 168.39H325.53C326.59 168.39 327.45 167.53 327.45 166.48V161.24C327.45 160.18 326.59 159.33 325.53 159.33H320.98C319.93 159.33 318.81 158.5 318.52 157.49L315.9 151.13C315.39 150.2 315.59 148.84 316.33 148.09L319.55 144.88C320.3 144.13 320.3 142.91 319.55 142.18L315.86 138.47C315.11 137.72 313.89 137.72 313.15 138.47L309.93 141.69C309.18 142.44 307.82 142.63 306.9 142.13L300.53 139.5C299.52 139.2 298.69 138.1 298.69 137.04V132.49C298.69 131.44 297.83 130.57 296.78 130.57H291.55C290.49 130.57 289.63 131.44 289.63 132.49V137.04C289.63 138.1 288.8 139.2 287.79 139.5L281.42 142.13C280.5 142.63 279.13 142.43 278.39 141.69L275.17 138.48C274.43 137.73 273.21 137.73 272.47 138.48L268.76 142.18C268.01 142.92 268.01 144.13 268.76 144.88L271.98 148.09C272.73 148.84 272.92 150.21 272.42 151.13L269.8 157.49C269.5 158.5 268.39 159.33 267.34 159.33H262.78C261.73 159.33 260.87 160.18 260.87 161.24V166.48C260.87 167.53 261.73 168.39 262.78 168.39H267.34C268.39 168.39 269.5 169.22 269.8 170.24L272.42 176.61C272.93 177.54 272.73 178.89 271.98 179.65L268.76 182.86C268.01 183.61 268.01 184.83 268.76 185.57L272.47 189.26C273.21 190.02 274.43 190.02 275.17 189.26L278.39 186.05C279.13 185.3 280.5 185.11 281.43 185.62L287.8 188.24C288.81 188.53 289.64 189.64 289.64 190.7V195.26C289.64 196.31 290.5 197.17 291.56 197.17H296.79C297.85 197.17 298.7 196.31 298.7 195.26V190.7C298.7 189.64 299.53 188.53 300.54 188.24L306.91 185.62C307.83 185.11 309.19 185.31 309.94 186.05L313.16 189.26C313.9 190.02 315.12 190.02 315.87 189.26H315.86ZM294.16 179.15C285.72 179.15 278.88 172.3 278.88 163.87C278.88 155.44 285.72 148.59 294.16 148.59C302.6 148.59 309.44 155.43 309.44 163.87C309.44 172.31 302.6 179.15 294.16 179.15Z" fill="#963333"/>
<path d="M351.19 203.71L350.26 200.61C350.07 199.98 349.4 199.63 348.78 199.81L346.09 200.63C345.46 200.82 344.65 200.53 344.3 199.97L341.59 196.68C341.13 196.22 341 195.37 341.31 194.8L342.64 192.32C342.95 191.74 342.73 191.02 342.16 190.71L339.3 189.18C338.73 188.87 338 189.09 337.69 189.67L336.35 192.15C336.04 192.72 335.26 193.09 334.63 192.96L330.38 192.53C329.73 192.53 329.04 192.03 328.85 191.4L328.03 188.7C327.84 188.08 327.18 187.72 326.55 187.91L323.45 188.84C322.81 189.04 322.47 189.7 322.66 190.33L323.48 193.02C323.67 193.65 323.37 194.45 322.82 194.81L319.52 197.53C319.07 197.99 318.22 198.11 317.64 197.81L315.15 196.48C314.58 196.17 313.85 196.38 313.55 196.97L312.01 199.82C311.71 200.4 311.92 201.13 312.49 201.43L314.98 202.77C315.56 203.08 315.92 203.85 315.79 204.49L315.37 208.74C315.37 209.4 314.87 210.09 314.24 210.27L311.54 211.09C310.91 211.28 310.55 211.95 310.75 212.57L311.69 215.67C311.88 216.3 312.54 216.65 313.17 216.46L315.87 215.65C316.49 215.46 317.29 215.76 317.65 216.3L320.36 219.6C320.82 220.06 320.95 220.91 320.64 221.48L319.31 223.96C319.01 224.53 319.22 225.25 319.8 225.57L322.65 227.09C323.23 227.4 323.95 227.18 324.26 226.61L325.6 224.12C325.9 223.54 326.69 223.18 327.32 223.31L331.56 223.74C332.22 223.74 332.91 224.24 333.1 224.87L333.91 227.56C334.1 228.19 334.77 228.55 335.39 228.35L338.49 227.41C339.11 227.22 339.47 226.55 339.29 225.94L338.47 223.24C338.28 222.62 338.57 221.8 339.12 221.45L342.42 218.74C342.87 218.28 343.73 218.15 344.3 218.45L346.78 219.78C347.36 220.1 348.09 219.88 348.39 219.3L349.92 216.44C350.23 215.87 350.01 215.14 349.43 214.83L346.94 213.49C346.36 213.18 346 212.41 346.14 211.78L346.57 207.52C346.57 206.87 347.07 206.18 347.69 205.99L350.39 205.18C351.01 204.99 351.37 204.33 351.18 203.7L351.19 203.71ZM339.32 212.6C336.85 217.21 331.1 218.95 326.5 216.48C321.89 214.01 320.15 208.27 322.62 203.67C325.09 199.05 330.84 197.32 335.44 199.79C340.04 202.27 341.78 208 339.31 212.61L339.32 212.6Z" fill="#963333"/>
<path d="M505.83 263.52H420.22C418.72 263.52 417.5 262.3 417.5 260.8C417.5 259.3 418.72 258.08 420.22 258.08H505.83C507.33 258.08 508.55 259.3 508.55 260.8C508.55 262.3 507.33 263.52 505.83 263.52Z" fill="#05191D"/>
<path d="M331.55 302.41H193.27C191.77 302.41 190.55 301.19 190.55 299.69C190.55 298.19 191.77 296.97 193.27 296.97H331.55C333.05 296.97 334.27 298.19 334.27 299.69C334.27 301.19 333.05 302.41 331.55 302.41Z" fill="#05191D"/>
<path d="M994.56 376.04H856.28C854.77 376.04 853.56 374.82 853.56 373.32C853.56 371.82 854.78 370.6 856.28 370.6H994.56C996.07 370.6 997.28 371.82 997.28 373.32C997.28 374.82 996.06 376.04 994.56 376.04Z" fill="#05191D"/>
<path d="M1048.92 661.78H2.72C1.22 661.78 0 660.56 0 659.06C0 657.56 1.22 656.34 2.72 656.34H1048.91C1050.42 656.34 1051.63 657.56 1051.63 659.06C1051.63 660.56 1050.41 661.78 1048.91 661.78H1048.92Z" fill="#05191D"/>
<path d="M665.16 229.32C659.3 229.32 653.78 231.6 649.63 235.75C642.56 242.82 641.15 253.78 646.21 262.4L646.57 263.01L624.33 285.25C624.33 285.25 623.25 286.3 623.24 287.78C623.23 288.9 623.79 290.03 624.92 291.16C626.11 292.35 627.37 292.96 628.64 292.96C630.17 292.96 631.25 292.08 631.26 292.07L653.44 269.88L654.05 270.24C657.41 272.21 661.25 273.25 665.17 273.25C671.04 273.25 676.55 270.97 680.7 266.82C689.26 258.25 689.26 244.32 680.7 235.76C676.55 231.61 671.03 229.33 665.17 229.33L665.16 229.32ZM665.16 266.73C656.65 266.73 649.72 259.8 649.72 251.29C649.72 242.78 656.65 235.84 665.17 235.84C673.68 235.84 680.61 242.77 680.61 251.29C680.61 259.81 673.68 266.73 665.16 266.73Z" fill="#963333"/>
<path d="M657.02 254.5H672.93V250.43H657.02V254.5Z" fill="#963333"/>
<path d="M257.31 656.73C255.81 656.73 254.59 655.51 254.59 654.01V444.26C254.59 442.76 255.81 441.54 257.31 441.54C258.81 441.54 260.03 442.76 260.03 444.26V654.01C260.03 655.52 258.81 656.73 257.31 656.73Z" fill="#05191D"/>
<path d="M306.05 656.73C304.55 656.73 303.33 655.51 303.33 654.01V444.26C303.33 442.76 304.55 441.54 306.05 441.54C307.55 441.54 308.77 442.76 308.77 444.26V654.01C308.77 655.52 307.55 656.73 306.05 656.73Z" fill="#05191D"/>
<path d="M306.05 461.32H257.31C255.81 461.32 254.59 460.1 254.59 458.6C254.59 457.1 255.81 455.88 257.31 455.88H306.05C307.55 455.88 308.77 457.1 308.77 458.6C308.77 460.1 307.55 461.32 306.05 461.32Z" fill="#05191D"/>
<path d="M306.05 485.28H257.31C255.81 485.28 254.59 484.06 254.59 482.56C254.59 481.06 255.81 479.84 257.31 479.84H306.05C307.55 479.84 308.77 481.06 308.77 482.56C308.77 484.06 307.55 485.28 306.05 485.28Z" fill="#05191D"/>
<path d="M306.05 509.25H257.31C255.81 509.25 254.59 508.03 254.59 506.53C254.59 505.03 255.81 503.81 257.31 503.81H306.05C307.55 503.81 308.77 505.03 308.77 506.53C308.77 508.03 307.55 509.25 306.05 509.25Z" fill="#05191D"/>
<path d="M306.05 533.21H257.31C255.81 533.21 254.59 531.99 254.59 530.49C254.59 528.99 255.81 527.77 257.31 527.77H306.05C307.55 527.77 308.77 528.99 308.77 530.49C308.77 531.99 307.55 533.21 306.05 533.21Z" fill="#05191D"/>
<path d="M306.05 557.17H257.31C255.81 557.17 254.59 555.95 254.59 554.45C254.59 552.95 255.81 551.73 257.31 551.73H306.05C307.55 551.73 308.77 552.95 308.77 554.45C308.77 555.95 307.55 557.17 306.05 557.17Z" fill="#05191D"/>
<path d="M306.05 581.13H257.31C255.81 581.13 254.59 579.91 254.59 578.41C254.59 576.91 255.81 575.69 257.31 575.69H306.05C307.55 575.69 308.77 576.91 308.77 578.41C308.77 579.91 307.55 581.13 306.05 581.13Z" fill="#05191D"/>
<path d="M306.05 605.1H257.31C255.81 605.1 254.59 603.88 254.59 602.38C254.59 600.88 255.81 599.66 257.31 599.66H306.05C307.55 599.66 308.77 600.88 308.77 602.38C308.77 603.88 307.55 605.1 306.05 605.1Z" fill="#05191D"/>
<path d="M306.05 629.06H257.31C255.81 629.06 254.59 627.84 254.59 626.34C254.59 624.84 255.81 623.62 257.31 623.62H306.05C307.55 623.62 308.77 624.84 308.77 626.34C308.77 627.84 307.55 629.06 306.05 629.06Z" fill="#05191D"/>
<path d="M190.92 454.44C189.42 454.44 188.2 453.22 188.2 451.72V441.12C188.2 439.62 189.42 438.4 190.92 438.4C192.42 438.4 193.64 439.62 193.64 441.12V451.72C193.64 453.22 192.42 454.44 190.92 454.44Z" fill="#05191D"/>
<path d="M196.23 449.14H185.63C184.13 449.14 182.91 447.92 182.91 446.42C182.91 444.92 184.13 443.7 185.63 443.7H196.23C197.73 443.7 198.95 444.92 198.95 446.42C198.95 447.92 197.73 449.14 196.23 449.14Z" fill="#05191D"/>
<path d="M435.84 75.1501C434.34 75.1501 433.12 73.9301 433.12 72.4301V61.8301C433.12 60.3301 434.34 59.1101 435.84 59.1101C437.34 59.1101 438.56 60.3301 438.56 61.8301V72.4301C438.56 73.9301 437.34 75.1501 435.84 75.1501Z" fill="#05191D"/>
<path d="M441.14 69.8502H430.54C429.04 69.8502 427.82 68.6301 427.82 67.1301C427.82 65.6301 429.04 64.4102 430.54 64.4102H441.14C442.64 64.4102 443.86 65.6301 443.86 67.1301C443.86 68.6301 442.64 69.8502 441.14 69.8502Z" fill="#05191D"/>
<path d="M521.7 624.15C521.45 624.15 521.2 624.12 520.95 624.05L510.75 621.14C509.3 620.73 508.47 619.22 508.88 617.77C509.29 616.32 510.8 615.5 512.25 615.9L522.45 618.81C523.9 619.22 524.73 620.73 524.32 622.18C523.98 623.38 522.89 624.16 521.7 624.16V624.15Z" fill="#05191D"/>
<path d="M515.14 627.8C514.89 627.8 514.64 627.77 514.39 627.7C512.94 627.29 512.11 625.78 512.52 624.33L515.43 614.13C515.84 612.68 517.35 611.86 518.8 612.26C520.25 612.67 521.08 614.18 520.67 615.63L517.76 625.83C517.42 627.03 516.33 627.81 515.14 627.81V627.8Z" fill="#05191D"/>
<path d="M468.13 303.87C467.88 303.87 467.63 303.84 467.38 303.76L457.18 300.85C455.73 300.44 454.9 298.93 455.31 297.48C455.72 296.03 457.23 295.2 458.68 295.61L468.88 298.52C470.33 298.93 471.16 300.44 470.75 301.89C470.41 303.09 469.32 303.87 468.13 303.87Z" fill="#05191D"/>
<path d="M461.57 307.51C461.32 307.51 461.07 307.48 460.82 307.4C459.37 306.99 458.54 305.48 458.95 304.03L461.86 293.83C462.27 292.38 463.78 291.55 465.23 291.96C466.68 292.37 467.51 293.88 467.1 295.33L464.19 305.53C463.85 306.73 462.76 307.51 461.57 307.51Z" fill="#05191D"/>
<path d="M487.728 230.254C502.502 215.48 502.502 191.528 487.728 176.754C472.955 161.981 449.002 161.981 434.228 176.754C419.455 191.528 419.455 215.48 434.228 230.254C449.002 245.028 472.955 245.028 487.728 230.254Z" fill="#963333"/>
<path d="M460.98 231.84C476.632 231.84 489.32 219.152 489.32 203.5C489.32 187.848 476.632 175.16 460.98 175.16C445.328 175.16 432.64 187.848 432.64 203.5C432.64 219.152 445.328 231.84 460.98 231.84Z" fill="white"/>
<path d="M460.98 232.94C444.75 232.94 431.54 219.73 431.54 203.5C431.54 187.27 444.75 174.06 460.98 174.06C477.21 174.06 490.42 187.27 490.42 203.5C490.42 219.73 477.21 232.94 460.98 232.94ZM460.98 176.26C445.96 176.26 433.74 188.48 433.74 203.5C433.74 218.52 445.96 230.74 460.98 230.74C476 230.74 488.22 218.52 488.22 203.5C488.22 188.48 476 176.26 460.98 176.26Z" fill="#05191D"/>
<path d="M460.98 204.6C460.37 204.6 459.88 204.11 459.88 203.5V189.07C459.88 188.46 460.37 187.97 460.98 187.97C461.59 187.97 462.08 188.46 462.08 189.07V203.5C462.08 204.11 461.59 204.6 460.98 204.6Z" fill="#05191D"/>
<path d="M477.89 204.6H460.98C460.37 204.6 459.88 204.11 459.88 203.5C459.88 202.89 460.37 202.4 460.98 202.4H477.89C478.5 202.4 478.99 202.89 478.99 203.5C478.99 204.11 478.5 204.6 477.89 204.6Z" fill="#05191D"/>
<path d="M462.1 178.36C462.1 178.98 461.6 179.48 460.98 179.48C460.36 179.48 459.86 178.98 459.86 178.36C459.86 177.74 460.36 177.24 460.98 177.24C461.6 177.24 462.1 177.74 462.1 178.36Z" fill="#05191D"/>
<path d="M479.55 186.52C479.11 186.96 478.4 186.96 477.97 186.52C477.53 186.08 477.53 185.37 477.97 184.94C478.41 184.5 479.12 184.5 479.55 184.94C479.99 185.38 479.99 186.09 479.55 186.52Z" fill="#05191D"/>
<path d="M486.13 204.62C485.51 204.62 485.01 204.12 485.01 203.5C485.01 202.88 485.51 202.38 486.13 202.38C486.75 202.38 487.25 202.88 487.25 203.5C487.25 204.12 486.75 204.62 486.13 204.62Z" fill="#05191D"/>
<path d="M477.97 222.07C477.53 221.63 477.53 220.92 477.97 220.49C478.41 220.06 479.12 220.05 479.55 220.49C479.99 220.93 479.99 221.64 479.55 222.07C479.11 222.51 478.4 222.51 477.97 222.07Z" fill="#05191D"/>
<path d="M459.87 228.65C459.87 228.03 460.37 227.53 460.99 227.53C461.61 227.53 462.11 228.03 462.11 228.65C462.11 229.27 461.61 229.77 460.99 229.77C460.37 229.77 459.87 229.27 459.87 228.65Z" fill="#05191D"/>
<path d="M442.42 220.49C442.86 220.05 443.57 220.05 444 220.49C444.43 220.93 444.44 221.64 444 222.07C443.56 222.5 442.85 222.51 442.42 222.07C441.98 221.63 441.98 220.92 442.42 220.49Z" fill="#05191D"/>
<path d="M435.84 204.62C436.459 204.62 436.96 204.118 436.96 203.5C436.96 202.881 436.459 202.38 435.84 202.38C435.221 202.38 434.72 202.881 434.72 203.5C434.72 204.118 435.221 204.62 435.84 204.62Z" fill="#05191D"/>
<path d="M444 184.94C444.44 185.38 444.44 186.09 444 186.52C443.56 186.96 442.85 186.96 442.42 186.52C441.99 186.08 441.98 185.37 442.42 184.94C442.86 184.51 443.57 184.5 444 184.94Z" fill="#05191D"/>
<path d="M516.33 189.06H500.44C499.83 189.06 499.34 188.57 499.34 187.96C499.34 187.35 499.83 186.86 500.44 186.86H516.33C516.94 186.86 517.43 187.35 517.43 187.96C517.43 188.57 516.94 189.06 516.33 189.06Z" fill="#05191D"/>
<path d="M516.33 220.15H500.44C499.83 220.15 499.34 219.66 499.34 219.05C499.34 218.44 499.83 217.95 500.44 217.95H516.33C516.94 217.95 517.43 218.44 517.43 219.05C517.43 219.66 516.94 220.15 516.33 220.15Z" fill="#05191D"/>
<path d="M536.07 204.61H506.4C505.79 204.61 505.3 204.12 505.3 203.51C505.3 202.9 505.79 202.41 506.4 202.41H536.07C536.68 202.41 537.17 202.9 537.17 203.51C537.17 204.12 536.68 204.61 536.07 204.61Z" fill="#05191D"/>
<path d="M587.85 613.27H570.3V630.82H587.85V613.27Z" fill="white"/>
<path d="M589.21 632.18H568.94V611.91H589.21V632.18ZM571.66 629.46H586.48V614.64H571.66V629.46Z" fill="#05191D"/>
<path d="M610.06 617.12H594.17C593.56 617.12 593.07 616.63 593.07 616.02C593.07 615.41 593.56 614.92 594.17 614.92H610.06C610.67 614.92 611.16 615.41 611.16 616.02C611.16 616.63 610.67 617.12 610.06 617.12Z" fill="#05191D"/>
<path d="M616.02 629.15H594.55C593.73 629.15 593.07 628.66 593.07 628.05C593.07 627.44 593.73 626.95 594.55 626.95H616.02C616.84 626.95 617.5 627.44 617.5 628.05C617.5 628.66 616.84 629.15 616.02 629.15Z" fill="#05191D"/>
<path d="M623.84 622.8H594.17C593.56 622.8 593.07 622.31 593.07 621.7C593.07 621.09 593.56 620.6 594.17 620.6H623.84C624.45 620.6 624.94 621.09 624.94 621.7C624.94 622.31 624.45 622.8 623.84 622.8Z" fill="#05191D"/>
<path d="M185 373.32H202.55V355.77H185V373.32Z" fill="white"/>
<path d="M208.91 374.68H188.64L183.64 354.41H203.91L208.91 374.68ZM186.36 371.96H201.18V357.14H186.36V371.96Z" fill="#05191D"/>
<path d="M167.8 359.63H183.69C179.3 359.63 179.79 359.14 179.79 358.53C179.79 357.92 179.3 357.43 178.69 357.43H162.8C162.19 357.43 161.7 357.92 161.7 358.53C161.7 359.14 162.19 359.63 167.8 359.63Z" fill="#05191D"/>
<path d="M161.83 371.66H183.3C179.12 371.66 179.78 371.17 179.78 370.56C179.78 369.95 179.12 369.46 178.3 369.46H156.83C156.01 369.46 155.35 369.95 155.35 370.56C155.35 371.17 156.01 371.66 161.83 371.66Z" fill="#05191D"/>
<path d="M154.01 365.31H183.68C179.29 365.31 179.78 364.82 179.78 364.21C179.78 363.6 179.29 363.11 178.68 363.11H149.01C148.4 363.11 147.91 363.6 147.91 364.21C147.91 364.82 148.4 365.31 154.01 365.31Z" fill="#05191D"/>
<path d="M725.61 421.71H720.16V655.93H725.61V421.71Z" fill="#05191D"/>
<path d="M733.49 396.09H712.28C708.884 396.09 706.13 398.844 706.13 402.24V443.9C706.13 447.297 708.884 450.05 712.28 450.05H733.49C736.887 450.05 739.64 447.297 739.64 443.9V402.24C739.64 398.844 736.887 396.09 733.49 396.09Z" fill="#963333"/>
<path d="M744.82 434.38C746.74 434.69 748.65 435 750.57 435.3C751.86 435.51 752.41 433.54 751.11 433.33C749.19 433.02 747.28 432.71 745.36 432.41C744.07 432.2 743.52 434.17 744.82 434.38Z" fill="#3F5B91"/>
<path d="M744.62 421.89C746.12 421.62 747.62 421.59 749.13 421.73C750.44 421.85 750.43 419.81 749.13 419.69C747.42 419.53 745.76 419.62 744.07 419.92C742.78 420.15 743.33 422.12 744.61 421.89H744.62Z" fill="#3F5B91"/>
<path d="M744 410.53C745.47 409.95 746.94 409.36 748.41 408.78C749.62 408.3 749.09 406.32 747.87 406.81C746.4 407.39 744.93 407.98 743.46 408.56C742.25 409.04 742.78 411.02 744 410.53Z" fill="#3F5B91"/>
<path d="M693.91 436.28C695.42 436.07 696.88 435.72 698.32 435.23C699.56 434.81 699.03 432.83 697.78 433.26C696.34 433.75 694.88 434.1 693.37 434.31C692.07 434.49 692.63 436.46 693.91 436.28Z" fill="#3F5B91"/>
<path d="M691.26 421.76C693.15 421.81 694.98 422.09 696.8 422.61C698.07 422.97 698.61 421 697.34 420.64C695.35 420.08 693.32 419.78 691.26 419.72C689.95 419.68 689.95 421.73 691.26 421.76Z" fill="#3F5B91"/>
<path d="M693.05 404.96C694.52 405.43 695.99 405.9 697.46 406.37C698.72 406.77 699.25 404.8 698 404.4C696.53 403.93 695.06 403.46 693.59 402.99C692.33 402.59 691.8 404.56 693.05 404.96Z" fill="#3F5B91"/>
<path d="M710.17 659.1L713.81 627.8H731.51L735.59 658.65L710.17 659.1Z" fill="#05191D"/>
<path d="M210.35 509.22C209.55 504.24 206.02 491.4 198.26 495.47C185.71 502.05 200.85 527.03 185.72 531.44C184.91 521.48 182.77 514.62 178.27 515.03C169 515.87 171.46 537.44 171.31 542.3C171.16 547.13 170.92 552.09 170.7 557.1C159.79 559.06 161.94 530.6 155.31 526.66C144.99 520.54 142.8 534.18 143.08 540.48C143.56 551.2 146.45 564.03 156.52 569.72C159.84 571.6 165.69 573.72 170.25 573.33C170.2 581.9 170.57 590.42 171.98 598.56C171.99 598.65 172.14 598.65 172.16 598.56C172.16 598.56 172.16 598.55 172.16 598.54L178.27 598.87C178.27 598.87 178.27 598.94 178.27 598.98C178.21 601.67 182.41 601.67 182.45 598.98C182.52 593.81 185.7 568.41 186.08 546.88C190.96 547.61 197.1 545.34 200.61 542.76C211.03 535.12 212.25 521.06 210.33 509.23L210.35 509.22Z" fill="#328432"/>
<path d="M180.34 602.15C179.72 602.15 179.11 601.99 178.58 601.67C177.92 601.27 177.47 600.68 177.26 599.96L172.75 599.72L171.11 599.77L170.86 598.74C169.66 591.83 169.1 584.11 169.1 574.52C164.08 574.52 158.58 572.19 155.96 570.71C145.22 564.64 142.41 550.93 141.94 540.51C141.75 536.32 142.64 527.64 147.33 524.83C149.71 523.4 152.6 523.68 155.92 525.64C159.13 527.54 160.35 533.38 161.77 540.15C163.69 549.31 165.41 555.91 169.61 556.01L169.71 553.76C169.89 549.87 170.06 546.02 170.18 542.24C170.2 541.5 170.16 540.36 170.11 538.96C169.82 530.47 169.27 514.66 178.19 513.85C179.57 513.72 180.82 514.12 181.91 515.04C184.4 517.13 185.99 521.97 186.76 529.81C192.39 527.3 192.1 520.77 191.77 513.29C191.43 505.73 191.09 497.91 197.74 494.42C199.9 493.29 201.96 493.2 203.86 494.15C209.4 496.92 211.31 507.78 211.51 509.01C212.98 518.08 213.61 534.65 201.33 543.66C197.91 546.17 192.14 548.38 187.24 548.12C186.92 562.17 185.48 577.66 184.52 588C184.04 593.18 183.66 597.28 183.63 598.96C183.61 600.14 183.03 601.14 182.04 601.69C181.52 601.98 180.93 602.12 180.35 602.12L180.34 602.15ZM172.98 597.41L179.48 597.76L179.45 598.89C179.44 599.43 179.63 599.6 179.77 599.68C180.09 599.87 180.56 599.87 180.9 599.68C181.17 599.53 181.3 599.3 181.3 598.94C181.32 597.17 181.69 593.24 182.2 587.8C183.19 577.18 184.68 561.13 184.93 546.84L184.95 545.52L186.26 545.71C190.77 546.38 196.67 544.2 199.94 541.8C211.22 533.52 210.59 517.94 209.21 509.39C208.6 505.64 206.49 498.07 202.82 496.23C201.6 495.62 200.29 495.7 198.81 496.47C193.46 499.28 193.76 506.03 194.08 513.19C194.43 521.06 194.83 529.97 186.06 532.53L184.7 532.93L184.58 531.51C183.77 521.58 181.87 518.04 180.41 516.82C179.79 516.3 179.15 516.09 178.39 516.16C171.65 516.77 172.17 531.7 172.42 538.88C172.47 540.34 172.51 541.53 172.49 542.31C172.37 546.1 172.2 549.96 172.02 553.86L171.83 558.05L170.92 558.21C163.45 559.55 161.35 549.49 159.49 540.62C158.29 534.91 157.06 529.01 154.73 527.63C152.2 526.13 150.11 525.86 148.52 526.81C145.06 528.88 144.07 536.25 144.26 540.4C144.7 550.24 147.29 563.13 157.11 568.68C160.5 570.59 166.04 572.49 170.17 572.15L171.43 572.04V573.31C171.37 582.88 171.87 590.57 172.98 597.39V597.41Z" fill="#50AA50"/>
<path d="M198.34 656.43H154.01C151.65 656.43 149.76 654.88 149.31 652.58L139.24 600.91L143.42 600.09L153.49 651.76C153.57 652.17 153.9 652.17 154.01 652.17H198.34C198.45 652.17 198.79 652.17 198.86 651.77L208.85 600.1L213.03 600.91L203.04 652.59C202.6 654.89 200.71 656.44 198.34 656.44V656.43Z" fill="#05191D"/>
<path d="M139.69 584.28H213.28C214.53 584.28 215.56 585.67 215.56 587.36V598.55C215.56 600.25 214.53 601.63 213.28 601.63H139.69C138.44 601.63 137.41 600.24 137.41 598.55V587.36C137.41 585.66 138.44 584.28 139.69 584.28Z" fill="#963333"/>
<path d="M213.28 602.8H139.69C137.79 602.8 136.25 600.9 136.25 598.56V587.37C136.25 585.03 137.79 583.13 139.69 583.13H213.28C215.18 583.13 216.72 585.03 216.72 587.37V598.56C216.72 600.9 215.18 602.8 213.28 602.8ZM139.69 585.44C139.16 585.44 138.57 586.26 138.57 587.36V598.55C138.57 599.65 139.16 600.47 139.69 600.47H213.28C213.81 600.47 214.4 599.65 214.4 598.55V587.36C214.4 586.26 213.81 585.44 213.28 585.44H139.69Z" fill="#405B91"/>
<path d="M213.28 602.61H139.69C137.9 602.61 136.44 600.79 136.44 598.56V587.37C136.44 585.13 137.9 583.32 139.69 583.32H213.28C215.07 583.32 216.53 585.14 216.53 587.37V598.56C216.53 600.8 215.07 602.61 213.28 602.61ZM139.69 585.25C139.07 585.25 138.38 586.12 138.38 587.37V598.56C138.38 599.81 139.07 600.67 139.69 600.67H213.28C213.9 600.67 214.59 599.8 214.59 598.56V587.37C214.59 586.12 213.9 585.25 213.28 585.25H139.69Z" fill="#B6D0FB"/>
<path d="M213.28 603.76H139.69C137.26 603.76 135.28 601.42 135.28 598.55V587.36C135.28 584.48 137.26 582.15 139.69 582.15H213.28C215.71 582.15 217.69 584.49 217.69 587.36V598.55C217.69 601.42 215.71 603.76 213.28 603.76ZM139.82 586.4C139.72 586.52 139.54 586.84 139.54 587.36V598.55C139.54 599.14 139.78 599.49 139.87 599.54L213.28 599.5C213.19 599.48 213.43 599.14 213.43 598.54V587.35C213.43 586.75 213.19 586.41 213.1 586.35L139.82 586.39V586.4Z" fill="#05191D"/>
<path d="M147.72 540.35C148.93 540.5 150.14 540.66 151.35 540.81C152.65 540.98 152.64 538.93 151.35 538.77C150.14 538.62 148.93 538.46 147.72 538.31C146.42 538.14 146.43 540.19 147.72 540.35Z" fill="#50AA50"/>
<path d="M153.06 524.29V526.11C153.06 527.42 155.1 527.43 155.1 526.11V524.29C155.1 522.98 153.06 522.97 153.06 524.29Z" fill="#50AA50"/>
<path d="M160.12 543.02C161.01 542.53 161.89 542.03 162.78 541.54C163.93 540.9 162.9 539.14 161.75 539.78C160.86 540.27 159.98 540.77 159.09 541.26C157.94 541.9 158.97 543.66 160.12 543.02Z" fill="#50AA50"/>
<path d="M149.63 566.52C150.7 565.77 151.76 565.03 152.83 564.28C153.9 563.53 152.88 561.76 151.8 562.52C150.73 563.27 149.67 564.01 148.6 564.76C147.53 565.51 148.55 567.28 149.63 566.52Z" fill="#50AA50"/>
<path d="M141.98 548.96C142.74 549.26 143.5 549.55 144.26 549.85C145.48 550.33 146.01 548.36 144.8 547.88C144.04 547.58 143.28 547.29 142.52 546.99C141.3 546.51 140.76 548.48 141.98 548.96Z" fill="#50AA50"/>
<path d="M156.8 558.44C157.29 558.47 157.58 558.71 157.87 559.07C158.71 560.08 160.15 558.63 159.31 557.63C158.65 556.84 157.8 556.48 156.79 556.4C155.48 556.31 155.48 558.35 156.79 558.44H156.8Z" fill="#50AA50"/>
<path d="M161.28 568.05C161.06 569.48 161.22 570.7 161.78 572.03C162.29 573.24 164.05 572.2 163.54 571C163.21 570.22 163.12 569.43 163.25 568.59C163.45 567.3 161.48 566.75 161.28 568.05Z" fill="#50AA50"/>
<path d="M171.96 568.42L173.77 568.9C175.04 569.24 175.58 567.27 174.31 566.93C173.71 566.77 173.1 566.61 172.5 566.45C171.23 566.11 170.69 568.08 171.96 568.42Z" fill="#50AA50"/>
<path d="M178.48 548.35C178.37 549.51 178.81 550.57 179.7 551.32C180.7 552.16 182.15 550.72 181.14 549.88C180.62 549.44 180.46 549.02 180.52 548.35C180.64 547.04 178.6 547.05 178.48 548.35Z" fill="#50AA50"/>
<path d="M175.88 533.75C175.29 534.56 175.18 535.38 175.35 536.35C175.58 537.64 177.55 537.09 177.32 535.81C177.26 535.4 177.36 535.05 177.64 534.78C178.42 533.72 176.65 532.7 175.88 533.75Z" fill="#50AA50"/>
<path d="M187.1 539.72V541.54C187.1 542.85 189.14 542.86 189.14 541.54V539.72C189.14 538.41 187.1 538.4 187.1 539.72Z" fill="#50AA50"/>
<path d="M168.09 536.52C168.54 536.82 169 537.13 169.45 537.43C170.55 538.16 171.57 536.39 170.48 535.67C170.03 535.37 169.57 535.06 169.12 534.76C168.02 534.03 167 535.8 168.09 536.52Z" fill="#50AA50"/>
<path d="M171.51 519.57C171.9 520.03 172.1 520.51 172.15 521.11C172.25 522.41 174.29 522.42 174.19 521.11C174.1 519.94 173.72 519.02 172.95 518.13C172.09 517.13 170.65 518.58 171.51 519.57Z" fill="#50AA50"/>
<path d="M176.66 513.4V516.12C176.66 517.43 178.7 517.44 178.7 516.12V513.4C178.7 512.09 176.66 512.08 176.66 513.4Z" fill="#50AA50"/>
<path d="M189.29 525.39C189.58 525.7 189.88 526.01 190.17 526.32C191.08 527.27 192.52 525.83 191.61 524.88C191.31 524.57 191.02 524.26 190.73 523.95C189.82 523 188.38 524.44 189.29 525.39Z" fill="#50AA50"/>
<path d="M191.32 513.22C192.22 513.27 193.13 513.32 194.03 513.38C195.34 513.46 195.34 511.41 194.03 511.34C193.13 511.29 192.22 511.24 191.32 511.18C190.01 511.1 190.01 513.15 191.32 513.22Z" fill="#50AA50"/>
<path d="M194.21 496.87C194.82 497.48 195.42 498.08 196.03 498.69C196.96 499.62 198.41 498.18 197.47 497.25C196.86 496.64 196.26 496.04 195.65 495.43C194.72 494.5 193.27 495.94 194.21 496.87Z" fill="#50AA50"/>
<path d="M202.08 491.61V494.79C202.08 496.1 204.12 496.11 204.12 494.79V491.61C204.12 490.3 202.08 490.29 202.08 491.61Z" fill="#50AA50"/>
<path d="M205.78 510.72C206.08 510.26 206.38 509.81 206.68 509.35C207.41 508.25 205.64 507.23 204.92 508.32C204.62 508.78 204.32 509.23 204.02 509.69C203.29 510.79 205.06 511.81 205.78 510.72Z" fill="#50AA50"/>
<path d="M198.86 530.78C199.62 530.48 200.38 530.19 201.14 529.89C202.35 529.42 201.82 527.44 200.6 527.92C199.84 528.22 199.08 528.51 198.32 528.81C197.11 529.28 197.64 531.26 198.86 530.78Z" fill="#50AA50"/>
<path d="M207.9 527.93C208.66 527.77 209.41 527.62 210.17 527.46C211.46 527.19 210.91 525.22 209.63 525.49C208.87 525.65 208.12 525.8 207.36 525.96C206.07 526.23 206.62 528.2 207.9 527.93Z" fill="#50AA50"/>
<path d="M202.08 537.45V537.9C202.08 539.21 204.12 539.22 204.12 537.9V537.45C204.12 536.14 202.08 536.13 202.08 537.45Z" fill="#50AA50"/>
<path d="M184.54 568.73C184.99 568.43 185.45 568.12 185.9 567.82C186.99 567.09 185.97 565.32 184.87 566.06C184.42 566.36 183.96 566.67 183.51 566.97C182.42 567.7 183.44 569.47 184.54 568.73Z" fill="#50AA50"/>
<path d="M183.35 576.25C184.16 575.47 185.03 575.02 186.13 574.76C187.41 574.46 186.87 572.49 185.59 572.79C184.17 573.12 182.96 573.8 181.91 574.8C180.96 575.71 182.4 577.15 183.35 576.24V576.25Z" fill="#50AA50"/>
<path d="M174.94 577.48C175.09 577.78 175.25 578.08 175.4 578.38C176 579.55 177.76 578.52 177.16 577.35C177.01 577.05 176.85 576.75 176.7 576.45C176.1 575.28 174.34 576.31 174.94 577.48Z" fill="#50AA50"/>
<path d="M167.16 579.68C168.3 580.28 169.42 580.42 170.69 580.17C171.98 579.91 171.43 577.94 170.15 578.2C169.43 578.34 168.84 578.25 168.2 577.92C167.04 577.31 166 579.08 167.17 579.68H167.16Z" fill="#50AA50"/>
<path d="M184.04 560.31C185.4 560.14 186.76 559.97 188.12 559.8C189.41 559.64 189.42 557.59 188.12 557.76C186.76 557.93 185.4 558.1 184.04 558.27C182.75 558.43 182.74 560.48 184.04 560.31Z" fill="#50AA50"/>
<path d="M366.97 470.8C388.95 450.93 410.94 431.05 432.92 411.18C436.18 408.24 431.35 403.43 428.11 406.37C406.13 426.24 384.14 446.12 362.16 465.99C358.9 468.93 363.73 473.74 366.97 470.8Z" fill="#D39898"/>
<path d="M441.5 501.21C463.48 481.34 485.47 461.46 507.45 441.59C510.71 438.65 505.88 433.84 502.64 436.78C480.66 456.65 458.67 476.53 436.69 496.4C433.43 499.34 438.26 504.15 441.5 501.21Z" fill="#D39898"/>
<path d="M360.52 523.73C406.6 478.8 452.67 433.87 498.75 388.94C501.89 385.88 497.08 381.06 493.94 384.13C447.86 429.06 401.79 473.99 355.71 518.92C352.57 521.98 357.38 526.8 360.52 523.73Z" fill="#D39898"/>
<path d="M571.78 104.61H568.82V294.83H571.78V104.61Z" fill="#05191D"/>
<path d="M582.38 294.83C582.38 301.5 576.97 306.9 570.31 306.9C563.65 306.9 558.24 301.49 558.24 294.83C558.24 288.17 563.65 282.76 570.31 282.76C576.97 282.76 582.38 288.17 582.38 294.83Z" fill="#05191D"/>
<path d="M570.47 335.34C570.27 335.34 566.33 335.3 563.45 332.43C561.53 330.51 560.56 327.85 560.56 324.52C560.56 323.64 561.28 322.92 562.16 322.92C563.04 322.92 563.76 323.64 563.76 324.52C563.76 326.97 564.42 328.87 565.72 330.17C567.65 332.1 570.45 332.15 570.48 332.15C574.99 332.15 578.65 328.48 578.65 323.98C578.65 319.48 574.99 315.81 570.48 315.81C569.6 315.81 568.88 315.1 568.88 314.21V305.33C568.88 304.45 569.6 303.73 570.48 303.73C571.36 303.73 572.08 304.45 572.08 305.33V312.72C577.59 313.5 581.85 318.25 581.85 323.97C581.85 330.24 576.75 335.34 570.48 335.34H570.47Z" fill="#05191D"/>
<path d="M507.06 342.78C506.45 342.67 505.94 342.19 505.85 341.54C505.73 340.73 506.29 339.98 512.1 339.86L577.46 330.23C573.27 330.11 574.02 330.67 574.14 331.48C574.26 332.29 573.7 333.04 572.89 333.16L507.53 342.79C507.37 342.81 507.21 342.81 507.06 342.79V342.78Z" fill="#05191D"/>
<path d="M632.52 364.53C632.37 364.5 632.23 364.46 632.09 364.38L571.99 333C571.26 332.62 570.98 331.73 571.36 331C571.74 330.27 572.63 329.99 573.36 330.37L633.46 361.75C634.19 362.13 634.47 363.02 634.09 363.75C633.78 364.34 633.14 364.63 632.52 364.52V364.53Z" fill="#05191D"/>
<path d="M494.485 340.646L658.299 369.119C661.491 369.674 663.632 372.715 663.077 375.907L643.79 486.874C643.235 490.066 640.194 492.206 637.002 491.652L458.133 460.563C454.941 460.008 452.8 456.966 453.355 453.774L470.024 357.872C472.024 346.365 482.987 338.648 494.495 340.648L494.485 340.646Z" fill="white"/>
<path d="M629.8 492.18C628.78 492.18 627.74 492.09 626.7 491.91L467.76 464.29C463.02 463.47 458.88 460.84 456.1 456.9C453.33 452.96 452.26 448.18 453.08 443.44L468.9 352.4C470.6 342.61 479.96 336.03 489.75 337.72L648.69 365.34C653.43 366.16 657.58 368.79 660.35 372.72C663.12 376.66 664.19 381.44 663.37 386.18L647.55 477.22C646.03 485.98 638.39 492.16 629.8 492.16V492.18ZM486.66 341.55C480.01 341.55 474.11 346.34 472.93 353.11L457.11 444.15C456.47 447.82 457.3 451.52 459.45 454.56C461.59 457.61 464.8 459.63 468.46 460.27L627.4 487.89C634.96 489.22 642.2 484.12 643.52 476.54L659.34 385.5C659.98 381.83 659.15 378.13 657 375.09C654.86 372.04 651.65 370.02 647.99 369.38L489.05 341.76C488.25 341.62 487.45 341.55 486.66 341.55Z" fill="#05191D"/>
<path d="M650.403 377.521L484.018 348.602C481.977 348.247 480.036 349.614 479.681 351.654L462.965 447.832C462.61 449.873 463.976 451.814 466.017 452.169L632.402 481.088C634.443 481.443 636.385 480.076 636.739 478.036L653.456 381.858C653.81 379.817 652.444 377.876 650.403 377.521Z" fill="#963333"/>
<path d="M627.83 482.15C627.13 482.15 626.42 482.09 625.71 481.97L472.06 455.27C468.84 454.71 466.02 452.93 464.14 450.25C462.26 447.57 461.53 444.32 462.09 441.1L476.59 357.66C477.75 351 484.09 346.52 490.76 347.68L644.41 374.38C651.07 375.54 655.55 381.89 654.39 388.55L639.89 471.99C639.33 475.22 637.55 478.03 634.87 479.92C632.78 481.39 630.34 482.16 627.84 482.16L627.83 482.15ZM626.4 477.94C628.55 478.31 630.72 477.83 632.5 476.57C634.28 475.31 635.47 473.44 635.85 471.29L650.35 387.85C651.12 383.41 648.14 379.17 643.7 378.4L490.05 351.7C485.62 350.93 481.37 353.91 480.6 358.35L466.1 441.79C465.73 443.94 466.21 446.11 467.47 447.89C468.73 449.67 470.6 450.86 472.75 451.24L626.4 477.94Z" fill="#05191D"/>
<path d="M553.18 467.29L593.13 430.68L615.23 478.07L553.18 467.29Z" fill="white"/>
<path d="M617.57 479.86L550.22 468.16L593.58 428.43L617.57 479.87V479.86ZM556.15 466.42L612.9 476.28L592.68 432.93L556.15 466.41V466.42Z" fill="#05191D"/>
<path d="M474.2 453.57L545.02 388.66L584.21 472.68L474.2 453.57Z" fill="white"/>
<path d="M586.55 474.47L471.24 454.43L545.47 386.4L586.55 474.46V474.47ZM477.16 452.7L581.87 470.9L544.56 390.93L477.15 452.71L477.16 452.7Z" fill="#05191D"/>
<path d="M629.22 400.97C628.28 406.36 623.16 409.97 617.77 409.03C612.38 408.09 608.77 402.97 609.71 397.58C610.65 392.19 615.77 388.58 621.16 389.52C626.55 390.46 630.16 395.58 629.22 400.97Z" fill="white"/>
<path d="M619.49 410.54C618.84 410.54 618.19 410.48 617.54 410.37C611.42 409.31 607.31 403.46 608.37 397.34C608.88 394.37 610.52 391.79 612.98 390.06C615.44 388.33 618.42 387.66 621.39 388.17C624.35 388.68 626.94 390.32 628.67 392.78C630.4 395.24 631.07 398.23 630.56 401.19C630.05 404.16 628.41 406.74 625.95 408.47C624.03 409.82 621.79 410.53 619.49 410.53V410.54ZM619.45 390.73C617.71 390.73 616.01 391.26 614.55 392.29C612.68 393.6 611.44 395.57 611.05 397.81C610.66 400.06 611.17 402.32 612.48 404.19C613.79 406.06 615.76 407.3 618 407.69C620.23 408.08 622.51 407.57 624.38 406.26C626.25 404.95 627.49 402.98 627.88 400.74C628.69 396.1 625.57 391.67 620.93 390.86C620.44 390.77 619.94 390.73 619.45 390.73Z" fill="#05191D"/>
<path d="M692.75 98.21H544.31V114.54H692.75V98.21Z" fill="#963333"/>
<path d="M821.75 435.92H772.47V0.219971H821.75V435.93V435.92ZM777.35 431.05H816.88V5.08997H777.35V431.05Z" fill="#05191D"/>
<path d="M821.13 48.04H773.09V0H821.13V48.04ZM778.03 43.1H816.2V4.94H778.03V43.11V43.1Z" fill="#05191D"/>
<path d="M777.301 0.723688L773.807 4.2168L816.913 47.322L820.406 43.8289L777.301 0.723688Z" fill="#05191D"/>
<path d="M816.913 0.723613L773.807 43.8289L777.301 47.322L820.406 4.21672L816.913 0.723613Z" fill="#05191D"/>
<path d="M821.13 91.1501H773.09V43.1101H821.13V91.1501ZM778.03 86.2101H816.2V48.0401H778.03V86.2101Z" fill="#05191D"/>
<path d="M777.304 43.8272L773.811 47.3203L816.916 90.4255L820.409 86.9324L777.304 43.8272Z" fill="#05191D"/>
<path d="M816.916 43.8271L773.811 86.9324L777.304 90.4255L820.409 47.3202L816.916 43.8271Z" fill="#05191D"/>
<path d="M821.13 134.25H773.09V86.21H821.13V134.25ZM778.03 129.31H816.2V91.14H778.03V129.31Z" fill="#05191D"/>
<path d="M777.3 86.9234L773.807 90.4165L816.912 133.522L820.405 130.029L777.3 86.9234Z" fill="#05191D"/>
<path d="M816.932 86.9533L773.827 130.059L777.32 133.552L820.425 90.4465L816.932 86.9533Z" fill="#05191D"/>
<path d="M821.13 177.35H773.09V129.31H821.13V177.35ZM778.03 172.41H816.2V134.24H778.03V172.41Z" fill="#05191D"/>
<path d="M777.297 130.03L773.803 133.523L816.909 176.628L820.402 173.135L777.297 130.03Z" fill="#05191D"/>
<path d="M816.919 130.03L773.813 173.135L777.307 176.628L820.412 133.523L816.919 130.03Z" fill="#05191D"/>
<path d="M821.13 220.46H773.09V172.42H821.13V220.46ZM778.03 215.52H816.2V177.35H778.03V215.52Z" fill="#05191D"/>
<path d="M777.31 173.143L773.817 176.636L816.922 219.741L820.415 216.248L777.31 173.143Z" fill="#05191D"/>
<path d="M816.932 173.163L773.827 216.268L777.32 219.761L820.425 176.656L816.932 173.163Z" fill="#05191D"/>
<path d="M821.13 263.56H773.09V215.52H821.13V263.56ZM778.03 258.62H816.2V220.45H778.03V258.62Z" fill="#05191D"/>
<path d="M777.306 216.239L773.813 219.732L816.918 262.838L820.412 259.345L777.306 216.239Z" fill="#05191D"/>
<path d="M816.928 216.269L773.823 259.375L777.316 262.868L820.421 219.762L816.928 216.269Z" fill="#05191D"/>
<path d="M821.13 306.67H773.09V258.63H821.13V306.67ZM778.03 301.73H816.2V263.56H778.03V301.73Z" fill="#05191D"/>
<path d="M777.31 259.353L773.817 262.846L816.922 305.951L820.415 302.458L777.31 259.353Z" fill="#05191D"/>
<path d="M816.932 259.383L773.827 302.488L777.32 305.981L820.425 262.876L816.932 259.383Z" fill="#05191D"/>
<path d="M821.13 349.77H773.09V301.73H821.13V349.77ZM778.03 344.83H816.2V306.66H778.03V344.83Z" fill="#05191D"/>
<path d="M777.306 302.449L773.813 305.942L816.918 349.047L820.411 345.554L777.306 302.449Z" fill="#05191D"/>
<path d="M816.928 302.479L773.823 345.584L777.316 349.077L820.421 305.972L816.928 302.479Z" fill="#05191D"/>
<path d="M821.13 392.87H773.09V344.83H821.13V392.87ZM778.03 387.93H816.2V349.76H778.03V387.93Z" fill="#05191D"/>
<path d="M777.302 345.555L773.809 349.048L816.914 392.154L820.407 388.66L777.302 345.555Z" fill="#05191D"/>
<path d="M816.924 345.585L773.819 388.691L777.312 392.184L820.417 349.079L816.924 345.585Z" fill="#05191D"/>
<path d="M821.13 435.98H773.09V387.94H821.13V435.98ZM778.03 431.04H816.2V392.87H778.03V431.04Z" fill="#05191D"/>
<path d="M777.306 388.648L773.812 392.142L816.918 435.247L820.411 431.754L777.306 388.648Z" fill="#05191D"/>
<path d="M816.919 388.651L773.807 431.749L777.299 435.243L820.412 392.145L816.919 388.651Z" fill="#05191D"/>
<path d="M906.9 90.5H858.86V42.46H906.9V90.5ZM863.8 85.56H901.97V47.39H863.8V85.56Z" fill="#05191D"/>
<path d="M902.69 43.1883L859.593 86.301L863.086 89.7935L906.184 46.6808L902.69 43.1883Z" fill="#05191D"/>
<path d="M863.073 43.1788L859.58 46.6719L902.685 89.7771L906.178 86.284L863.073 43.1788Z" fill="#05191D"/>
<path d="M863.8 90.5H815.76V42.46H863.8V90.5ZM820.7 85.56H858.87V47.39H820.7V85.56Z" fill="#05191D"/>
<path d="M859.589 43.1797L816.492 86.2925L819.985 89.785L863.083 46.6722L859.589 43.1797Z" fill="#05191D"/>
<path d="M819.977 43.1751L816.484 46.6682L859.589 89.7734L863.082 86.2803L819.977 43.1751Z" fill="#05191D"/>
<path d="M820.69 90.5H772.65V42.46H820.69V90.5ZM777.59 85.56H815.76V47.39H777.59V85.56Z" fill="#05191D"/>
<path d="M777.59 90.5H729.55V42.46H777.59V90.5ZM734.49 85.56H772.66V47.39H734.49V85.56Z" fill="#05191D"/>
<path d="M773.379 43.1748L730.274 86.28L733.767 89.7731L776.872 46.6679L773.379 43.1748Z" fill="#05191D"/>
<path d="M733.767 43.1749L730.274 46.668L773.379 89.7732L776.872 86.2801L733.767 43.1749Z" fill="#05191D"/>
<path d="M734.49 90.5H686.45V42.46H734.49V90.5ZM691.39 85.56H729.56V47.39H691.39V85.56Z" fill="#05191D"/>
<path d="M730.273 43.1711L687.168 86.2764L690.661 89.7695L733.766 46.6642L730.273 43.1711Z" fill="#05191D"/>
<path d="M690.671 43.1812L687.178 46.6743L730.283 89.7795L733.776 86.2864L690.671 43.1812Z" fill="#05191D"/>
<path d="M691.38 90.5H643.34V42.46H691.38V90.5ZM648.28 85.56H686.45V47.39H648.28V85.56Z" fill="#05191D"/>
<path d="M645.81 90.4999H602.71C601.71 90.4999 600.81 89.8999 600.43 88.9799C600.05 88.0599 600.26 86.9999 600.97 86.2899L644.07 43.1899L647.56 46.6799L608.67 85.5699H644.79L687.17 43.1899L690.66 46.6799L647.56 89.7799C647.1 90.2399 646.47 90.4999 645.81 90.4999Z" fill="#05191D"/>
<path d="M647.557 43.1744L644.064 46.6675L687.169 89.7727L690.663 86.2796L647.557 43.1744Z" fill="#05191D"/>
<path d="M821.86 483.97H772.48V435.93H821.86V483.97ZM777.55 479.03H816.78V440.86H777.55V479.03Z" fill="#05191D"/>
<path d="M817.52 483.24L773.22 440.14L776.81 436.65L821.11 479.75L817.52 483.24Z" fill="#05191D"/>
<path d="M776.81 483.24L773.22 479.75L817.52 436.65L821.11 440.14L776.81 483.24Z" fill="#05191D"/>
<path d="M821.86 656.38H772.48V608.34H821.86V656.38ZM777.55 651.44H816.78V613.27H777.55V651.44Z" fill="#05191D"/>
<path d="M817.52 655.66L773.22 612.55L776.81 609.06L821.11 652.16L817.52 655.66Z" fill="#05191D"/>
<path d="M776.81 655.66L773.22 652.16L817.52 609.06L821.11 612.55L776.81 655.66Z" fill="#05191D"/>
<path d="M821.86 522.98H772.48V474.94H821.86V522.98ZM777.55 518.04H816.78V479.87H777.55V518.04Z" fill="#05191D"/>
<path d="M817.52 522.26L773.22 479.16L776.81 475.66L821.11 518.77L817.52 522.26Z" fill="#05191D"/>
<path d="M776.81 522.26L773.22 518.77L817.52 475.66L821.11 479.16L776.81 522.26Z" fill="#05191D"/>
<path d="M821.86 566.09H772.48V518.05H821.86V566.09ZM777.55 561.15H816.78V522.98H777.55V561.15Z" fill="#05191D"/>
<path d="M817.52 565.36L773.22 522.26L776.81 518.77L821.11 561.87L817.52 565.36Z" fill="#05191D"/>
<path d="M776.81 565.36L773.22 561.87L817.52 518.77L821.11 522.26L776.81 565.36Z" fill="#05191D"/>
<path d="M821.86 609.19H772.48V561.15H821.86V609.19ZM777.55 604.25H816.78V566.08H777.55V604.25Z" fill="#05191D"/>
<path d="M817.52 608.47L773.22 565.36L776.81 561.87L821.11 604.98L817.52 608.47Z" fill="#05191D"/>
<path d="M776.81 608.47L773.22 604.98L817.52 561.87L821.11 565.36L776.81 608.47Z" fill="#05191D"/>
<path d="M270.73 261.43C275.99 261.43 276 253.26 270.73 253.26C265.46 253.26 265.46 261.43 270.73 261.43Z" fill="#05191D"/>
<path d="M713.73 176.1C718.99 176.1 719 167.93 713.73 167.93C708.46 167.93 708.46 176.1 713.73 176.1Z" fill="#05191D"/>
<path d="M897.11 468.41H898.93C901.07 468.41 903.11 466.53 903.02 464.32C902.92 462.11 901.22 460.23 898.93 460.23H897.11C894.97 460.23 892.93 462.11 893.02 464.32C893.12 466.53 894.81 468.41 897.11 468.41Z" fill="#05191D"/>
<path d="M109.14 528.32C114.4 528.32 114.41 520.15 109.14 520.15C103.87 520.15 103.87 528.32 109.14 528.32Z" fill="#05191D"/>
<path d="M499.49 136.15C504.75 136.15 504.76 127.98 499.49 127.98C494.22 127.98 494.22 136.15 499.49 136.15Z" fill="#05191D"/>
</g>
<defs>
<clipPath id="clip0_299_2371">
<rect width="1051.64" height="661.78" fill="white"/>
</clipPath>
</defs>
</svg>
