<svg width="53" height="64" viewBox="0 0 53 64" fill="none" xmlns="http://www.w3.org/2000/svg">
<path d="M37.7862 39.669L26.5 51.4722L15.2138 39.669C6.75514 40.0525 0 47.2904 0 56.2232V57.411C0 60.6896 2.54353 63.3497 5.67857 63.3497H47.3214C50.4565 63.3497 53 60.6896 53 57.411V56.2232C53 47.2904 46.2449 40.0525 37.7862 39.669ZM1.60893 9.87626L2.36607 10.0618V17.2873C1.53795 17.807 0.946429 18.7101 0.946429 19.7989C0.946429 20.8382 1.49063 21.7043 2.2596 22.2363L0.414062 29.9443C0.212946 30.798 0.6625 31.6764 1.31317 31.6764H6.25826C6.90893 31.6764 7.35848 30.798 7.15737 29.9443L5.31183 22.2363C6.0808 21.7043 6.625 20.8382 6.625 19.7989C6.625 18.7101 6.03348 17.807 5.20536 17.2873V10.7794L13.0134 12.7467C11.996 14.8747 11.3571 17.2502 11.3571 19.7989C11.3571 28.5462 18.1359 35.6356 26.5 35.6356C34.8641 35.6356 41.6429 28.5462 41.6429 19.7989C41.6429 17.2502 41.0159 14.8747 39.9866 12.7467L51.3792 9.87626C53.5324 9.33187 53.5324 6.52334 51.3792 5.97896L28.8542 0.287658C27.3163 -0.095886 25.6955 -0.095886 24.1576 0.287658L1.60893 5.96658C-0.532366 6.51097 -0.532366 9.33187 1.60893 9.87626Z" fill="url(#paint0_linear_299_1843)"/>
<defs>
<linearGradient id="paint0_linear_299_1843" x1="26.5" y1="0" x2="26.5" y2="63.3497" gradientUnits="userSpaceOnUse">
<stop stop-color="#BD0000"/>
<stop offset="1" stop-color="#4F0C09"/>
</linearGradient>
</defs>
</svg>
