<svg width="65" height="64" viewBox="0 0 65 64" fill="none" xmlns="http://www.w3.org/2000/svg">
<path d="M32.4344 0L64.8687 13.5682V18.0909H60.5442C60.5442 19.3276 59.4968 20.3522 58.2129 20.3522H6.6558C5.37194 20.3522 4.32458 19.3276 4.32458 18.0909H0V13.5682L32.4344 0ZM8.64917 22.6136H17.2983V49.7499H21.6229V22.6136H30.2721V49.7499H34.5967V22.6136H43.2458V49.7499H47.5704V22.6136H56.2196V49.7499H58.2129C59.4968 49.7499 60.5442 50.7746 60.5442 52.0113V54.2727H4.32458V52.0113C4.32458 50.7746 5.37194 49.7499 6.6558 49.7499H8.64917V22.6136ZM62.5375 56.534C63.8214 56.534 64.8687 57.5587 64.8687 58.7954V63.3181H0V58.7954C0 57.5587 1.04736 56.534 2.33122 56.534H62.5375Z" fill="url(#paint0_linear_299_1845)"/>
<defs>
<linearGradient id="paint0_linear_299_1845" x1="32.4344" y1="0" x2="32.4344" y2="63.3181" gradientUnits="userSpaceOnUse">
<stop stop-color="#BD0000"/>
<stop offset="1" stop-color="#4F0C09"/>
</linearGradient>
</defs>
</svg>
